# xmcd
#
# Track frame offsets: 
#        150
#        12632
#        24204
#        35128
#        46715
#        58750
#        70764
#        80297
#        92944
#        104998
#        115425
#
# Disc length: 1672 seconds
#
# Revision: 0
# Processed by: cddbd v1.5.2PL0 Copyright (c) Steve Scherf et al.
# Submitted via: ExactAudioCopyFreeDBPlugin 1.0
#
DISCID=9506860b
DTITLE=George Jones - Icon
DYEAR=2013
DGENRE=Country
TTITLE0=White Lightning
TTITLE1=She Still Thinks I Care
TTITLE2=Tender Years
TTITLE3=The Window Up Above
TTITLE4=Agirl I Used To Know
TTITLE5=We Must Have Been Out Of Our Minds
TTITLE6=The Race Is On
TTITLE7=Aching, Breaking Heart
TTITLE8=You Comb Her Hair
TTITLE9=Treasure Of Love
TTITLE10=Your Heart Turned Left (And I Was On The Right)
EXTD=
EXTT0=
EXTT1=
EXTT2=
EXTT3=
EXTT4=
EXTT5=
EXTT6=
EXTT7=
EXTT8=
EXTT9=
EXTT10=
PLAYORDER=
